<svg id="Layer_1" xmlns="http://www.w3.org/2000/svg" viewBox="0 0 341.75 476.3"><defs><style>.cls-3{fill:#056de0}.cls-4{fill:#066de0}</style></defs><path d="M34.08 0c66.84 8.19 133.02 16.29 199.49 24.44-.33 7.48-.61 14.7-.96 21.91-1.19 24.47-2.39 48.94-3.62 73.41-1.86 37.21-3.77 74.41-5.62 111.62-1.14 22.97-2.18 45.95-3.3 68.92-1.97 40.2-3.98 80.4-5.89 120.6-.12 2.57-1.13 3.08-3.44 3.02-37.36-.97-74.72-1.88-112.09-2.77-28.61-.68-57.23-1.33-85.84-1.97-4.09-.09-8.18-.01-12.8-.01C11.39 279.05 22.72 139.73 34.08 0Zm80.98 103.38c-3.98.35-8.11.42-12.14 1.1-18.16 3.08-30.5 14.2-39.4 29.55-11.57 19.93-16.18 41.75-16.73 64.6-.16 6.64 2.52 11.81 7.86 15.26 5.11 3.31 10.42 6.66 16.12 8.63 11.55 3.98 23.39 7.11 35.17 10.39 2.41.67 3.55 1.34 3.44 4.15-.56 13.74-.87 27.49-1.32 41.23-.17 5.33-.47 10.66-.73 16.41-18.44-1.36-36.45-2.69-54.82-4.04-.69 9.56-1.43 18.87-1.91 28.2-.04.85 1.39 2.24 2.42 2.62 17.66 6.62 35.8 10.07 54.74 8 2.82-.31 5.67-.38 8.95-.59 0 1.63.01 2.84 0 4.04-.09 8.38-.26 16.75-.21 25.13 0 1.13 1.08 3.21 1.71 3.23 6.57.24 13.14.15 20.05.15-.45-9.27-.92-18.11-1.3-26.94-.36-8.35-.29-8.21 7.94-9.72 11.8-2.18 23.44-4.88 34.48-9.85 8.71-3.92 14.35-10.22 15.12-19.78.75-9.29 1.19-18.7.6-27.98-.76-12.02-3.83-23.63-9.38-34.49-3.17-6.21-7.85-10.36-14.71-11.62-8.35-1.53-16.72-3-25.15-3.99-3.2-.38-4.11-1.31-4.27-4.45-1.19-23.59-2.57-47.18-3.88-70.77-.07-1.18 0-2.37 0-4.52 15.29 1.03 30.01 2.02 44.59 3 0-6.02.15-12.13-.03-18.23-.37-12.51-.43-12.6-12.97-14.09-11.02-1.31-22.08-2.37-33.5-3.59-.72-12.9-1.46-25.96-2.2-39.25-6.37-.98-12.49-1.93-18.53-2.86v41.07Z" style="fill:#026bdf"/><path class="cls-3" d="M248.89 39.26h27.26c-11.34 137.03-22.64 273.6-34 410.8-70.54-2.48-140.91-4.96-211.6-7.44-.53-4.48-1.03-8.76-1.59-13.46 65.5 1.01 130.66 2.02 196.27 3.03 7.9-131.18 15.77-261.99 23.66-392.93Z"/><path d="M280.59 451.56c-9.96-.92-19.39-1.83-28.84-2.64-2.77-.24-2.28-2.06-2.13-3.79.99-11.58 2.02-23.16 2.99-34.74 2.22-26.39 4.38-52.79 6.63-79.18 2.06-24.15 4.23-48.3 6.28-72.45 1.93-22.78 3.74-45.57 5.67-68.35 2.07-24.4 4.24-48.8 6.31-73.2 1.94-22.9 3.8-45.81 5.7-68.72.41-4.98.78-9.97 1.42-14.92.13-.97 1.42-2.54 2.2-2.56 8.22-.19 16.44-.12 25.19-.12-10.44 139.74-20.91 279.94-31.42 420.66Z" style="fill:#046cdf"/><path class="cls-4" d="M305.33 476.3c-69.12-3.74-137.82-7.46-206.93-11.19.3-2.89.57-5.46.86-8.23 8.47 0 16.7-.05 24.93 0 50.87.36 101.74.75 152.6 1.14 4.5.03 9 .03 13.49.24 2.36.11 3.23-.56 3.37-3.08 2.69-46.04 5.47-92.08 8.26-138.12 3.64-60.01 7.32-120.02 10.95-180.03 1.39-22.96 2.69-45.92 4.03-68.87.06-.96.22-1.92.37-3.3 8.16 1.68 16.07 3.31 24.48 5.05-12.13 135.29-24.25 270.54-36.43 406.39Z"/><path class="cls-3" d="M129.13 296v-58.66c10.98 2.31 21.92 4.18 32.61 7.02 6.98 1.85 9.36 7.97 9.42 14.67.1 11.88-3.99 22.52-10.6 32.22-.82 1.2-2.54 2.34-3.95 2.48-8.89.9-17.82 1.51-27.48 2.27Z"/><path class="cls-4" d="M116.7 141.16c.7 24.76 1.38 48.8 2.09 73.61-6.58-1.29-12.66-2.04-18.46-3.74-6.62-1.95-8.89-7.81-9.77-13.92-2.34-16.21 1.92-31.28 9.28-45.47 3.23-6.22 9.73-8.53 16.86-10.47Z"/></svg>