<?xml version="1.0" encoding="UTF-8"?><svg id="Layer_1" xmlns="http://www.w3.org/2000/svg" viewBox="0 0 460.04 468.04"><defs><style>.cls-1 {
  fill: #046de0;
}

.cls-2 {
  fill: #036cdf;
}

.cls-3 {
  fill: #086fe0;
}

.cls-4 {
  fill: #076ee0;
}

.cls-5 {
  fill: #056de0;
}

.cls-6 {
  fill: #066de0;
}

.cls-7 {
  fill: #066ee0;
}

.cls-8 {
  fill: #096fe0;
}

.cls-9 {
  fill: #0a70e0;
}

.cls-10 {
  fill: #0c71e0;
}

</style></defs><path class="cls-2" d="M441.89,454.21c-1.24-.4-2.19-.62-3.08-1-26.19-11.18-52.68-21.71-78.42-33.83-13.8-6.5-26.36-15.66-39.41-23.73-3.82-2.36-7.36-5.19-11.12-7.64-10.58-6.89-19.53-15.38-27.26-25.42-26.62-34.56-53.65-68.79-80.22-103.38-11.89-15.48-23.09-31.51-27.68-51.03-2.86-12.16-6.06-24.25-8.35-36.51-6.75-36.02-11.54-72.3-13.3-108.94-.5-10.43,1.67-13.74,11.99-15.08,7.64-.99,15.44-.71,23.16-.98,1.24-.04,2.48,0,3.8,0,0-.37,.14-.82-.02-1.05-7.36-9.84-10.8-21.56-15.48-32.66-.87-2.07-.35-4.72-.47-7.1,2.42-.1,5-.8,7.23-.2,7.4,1.96,13.41,5.76,16.42,13.43,2.31,5.89,5.18,11.56,8.09,17.95,1.52-6.79,2.98-12.83,4.19-18.92,1.01-5.09,4.01-8.24,8.44-10.75,15.35-8.71,31.17-9.22,47.75-4.06,28.9,8.98,55.69,22.28,80.11,39.98,15.78,11.43,27.78,26.9,40.4,41.6,21.1,24.58,32.95,53.52,41.29,84.41,11.28,41.75,21.62,83.68,28.39,126.44,2.47,15.59,2.11,31.18-.06,46.7-5.04,36-10.36,71.97-15.58,107.95-.17,1.2-.49,2.38-.8,3.83ZM244.09,114.14c-1.85-1.45-3.64-2.98-5.55-4.34-4.06-2.89-7.96-6.11-12.33-8.44-8.61-4.58-12.93-2.72-16.47,6.4-.09,.23-.16,.47-.23,.71-5.9,20.3-7.34,40.63,1.24,60.51,14.12,32.71,30.28,64.43,48.02,95.32,3.53,6.16,7.23,12.4,11.86,17.71,16.18,18.55,32.78,36.74,49.27,55.02,10.65,11.81,21.78,23.05,35.31,31.7,20.52,13.12,40.89,26.5,61.33,39.75,.79,.51,1.7,.85,2.87,1.41,.15-1.18,.33-2,.34-2.83,.36-39.49,.81-78.99,.93-118.48,.02-6.17-.65-12.6-2.45-18.47-15.02-48.99-32.81-96.96-53.42-143.89-5.01-11.41-12.06-20.97-22.58-27.78-9.43-6.11-18.61-12.72-28.49-17.99-11.31-6.02-23.22-10.94-35.01-16-2.33-1-5.65-1.34-7.93-.47-6.62,2.54-13.04,5.67-19.37,8.9-9.66,4.93-13.77,12.68-11.14,23.53,.18,.73,.28,1.47,.44,2.21,1.09,5.2,2.19,10.4,3.28,15.6l.06-.08Z"></path><path class="cls-1" d="M39.61,468.04c-2.18-3.64-4.56-7.43-6.75-11.32-6.79-12.07-14.24-23.85-20.02-36.39-5.29-11.48-10.3-23.45-10.86-36.39-.88-20.35-1.26-40.72-1.82-61.09-.09-3.25,.14-6.51-.04-9.75-.88-15.13,2.89-29.16,9.42-42.68,9.08-18.81,18.79-37.25,30.52-54.57,3.52-5.2,5.34-5.71,10.79-2.51,3.61,2.12,6.95,4.72,10.26,6.99,1.39-6.09,2.69-12.12,4.2-18.1,.3-1.17,1.35-2.9,2.19-2.99,1-.1,2.41,1.1,3.18,2.09,2.46,3.19,3.72,6.69,2.46,10.85-.81,2.68-1.17,5.49-1.96,9.33,2.8-2.42,4.87-4,6.7-5.82,2.37-2.35,5.07-2.89,8.25-2.36,7.15,1.19,13.64,3.82,17.86,9.93,5.31,7.68,10.87,15.33,15.04,23.64,15.04,30,17.94,61.21,5.95,92.83-7.92,20.87-17.19,41.23-26.13,61.71-4.54,10.4-11.2,19.46-19.33,27.42-13.21,12.94-26.39,25.89-39.92,39.17Zm4.77-25.19c.72-.82,1.24-1.33,1.68-1.91,12.3-16.38,24.67-32.71,36.81-49.2,2.18-2.96,3.97-6.43,5.03-9.95,6.58-21.86,13.09-43.75,19.2-65.74,1.72-6.18,3.59-12.97,2.7-19.08-2.21-15.11-8.95-28.74-17.38-41.44-.85-1.28-2.23-2.64-3.63-3.03-3.83-1.06-7.78-1.8-11.73-2.33-4.71-.62-8.27,1.25-10.34,5.68-1.32,2.82-2.68,5.62-4.21,8.81-1.23-3.61-2.06-6.74-3.36-9.66-2.37-5.32-4.89-6.08-9.61-2.65-9.17,6.66-15.79,15.22-18.34,26.5-1.04,4.62-1.98,9.27-2.83,13.93-4.36,23.83-7.58,47.46-5.28,72.09,2.56,27.37,10.23,52.75,21.27,77.98Z"></path><path class="cls-6" d="M396.33,296.32c-.01,12.44-5.45,21.33-15.2,25.28-3.61,1.46-6.75,1.09-9.14-1.89-12.77-15.94-11.06-34.42,6.81-46,5.58-3.62,9.28-2.24,12.75,3.56,3.04,5.09,4.79,12.04,4.78,19.05Z"></path><path class="cls-5" d="M302.64,179.69c.71-8.46,2.15-16.62,8.91-22.16,12.74-10.45,18.02-6.54,22.3,5.4,5.57,15.53,.88,26.71-12.67,35.77-7.75,5.18-13.26,2.99-15.97-5.86-1.3-4.25-1.74-8.76-2.57-13.15Z"></path><path class="cls-5" d="M280.04,234.36c.45-6.28,2.05-13.53,7.42-19.37,4.32-4.7,7.97-5.2,12.63-.96,9.66,8.8,15.05,19.53,12.95,33.01-.87,5.59-3.91,10.14-8.52,13.17-1.85,1.21-5.14,1.55-7.25,.81-8.74-3.08-17.34-16.14-17.23-26.67Z"></path><path class="cls-6" d="M270.22,178.81c3.21,.71,6.72,1.13,9.95,2.3,5.17,1.88,7.61,5.96,6.33,11.26-2.64,10.89-8.7,19.6-18.5,25.24-5.47,3.15-10.45,1.75-14.1-3.37-4.4-6.18-5.95-13.14-4.94-20.62,.89-6.59,4.6-10.99,11.03-12.77,3.22-.89,6.57-1.33,10.23-2.04Z"></path><path class="cls-5" d="M346.86,254.34c1.18-19.63,11.43-26.83,29.4-19.88,13.41,5.19,15.09,14.63,4.24,24-4.19,3.62-8.99,6.89-14.04,9.11-11.94,5.25-19.57-.14-19.6-13.23Z"></path><path class="cls-5" d="M275.8,137.42c1.61-4.65,2.86-9.46,4.91-13.91,2.34-5.08,6.87-7.51,12.42-7.57,7.34-.08,14.07,2.02,19.83,6.65,5.01,4.03,5.97,8.97,2.34,14.19-5.93,8.52-14.13,14.1-24.25,16.35-7.35,1.64-12.12-1.75-13.75-9.08-.46-2.05-.51-4.2-.75-6.3-.25-.11-.5-.22-.75-.32Z"></path><path class="cls-6" d="M224.53,153.51c.6-3.94,.84-6.82,1.48-9.6,2.67-11.59,12.97-15.56,22.92-8.91,7,4.68,10.82,14.21,8.31,20.76-3.23,8.45-14.9,15.34-23.72,13.47-2.22-.47-4.89-2.5-5.82-4.52-1.73-3.76-2.34-8.04-3.17-11.2Z"></path><path class="cls-6" d="M340.86,281.97c-1.26,5.26-2.07,12.29-8.68,16-6.36,3.58-12.92,2.35-18.88-1.27-2.93-1.77-5.55-4.22-7.88-6.76-3.11-3.39-2.96-7.31-.38-11,5.18-7.41,12.34-12.02,21.17-13.6,7.7-1.37,14.59,6.07,14.65,16.62Z"></path><path class="cls-5" d="M353.3,217.74c-12.27-.05-16.58-5.47-13.32-17.4,1.1-4.03,2.99-7.92,5.03-11.59,2.81-5.06,7.13-8.14,13.25-7.11,6.24,1.04,10.66,4.61,13.04,10.55,.18,.46,.28,.96,.42,1.44,4.29,14.64-3,24.18-18.42,24.12Z"></path><path class="cls-7" d="M348.89,340.2c-.86-.11-2.54-.11-4.07-.57-6.92-2.07-13.33-4.96-14.81-13.05-1.2-6.53,4.47-17.43,10.43-20.85,3.25-1.86,7.06-1.7,10.01,1.27,6.57,6.61,10.46,14.63,10.42,24.09-.03,6.19-4.19,9.32-11.97,9.12Z"></path><path class="cls-5" d="M373.59,354.3c.19-4.36,2.01-9.61,5.3-14.29,2.98-4.23,7.06-5.32,11.84-3.42,7.18,2.85,12.51,13.19,10.67,20.71-1.34,5.49-7.41,9.54-14.55,9.57-1.6,0-3.23-.26-4.81-.57-6.53-1.29-8.61-3.94-8.45-12Z"></path><path class="cls-2" d="M244.03,114.22c.17,0,.33,0,.5,0-.05,.15-.1,.29-.14,.44-.1-.17-.2-.34-.3-.51l-.06,.08Z"></path><path class="cls-8" d="M69.79,324.64c-5.88-.09-7.93-3.01-5.82-8.51,2.27-5.89,5.93-10.75,12.47-11.76,7.31-1.13,10.96,1.65,8.46,9.12-2.37,7.1-7.89,11.26-15.11,11.15Z"></path><path class="cls-8" d="M67.45,373.54c5.43-.06,7.33,2.28,5.84,7.54-1.71,6.04-4.96,11.02-11.17,13.12-7.27,2.46-10.95-.97-9.39-8.41,1.62-7.74,6.94-12.17,14.72-12.25Z"></path><path class="cls-4" d="M37.67,335.21c-.03-6.7,4.44-12.59,10.84-14.33,3.51-.96,5.65-.06,6.34,3.2,1.26,5.96,.44,11.65-3.35,16.64-.66,.87-1.52,1.9-2.49,2.18-2.65,.77-5.87,2.29-7.97,1.4-1.77-.75-2.35-4.43-3.33-6.87-.26-.64-.04-1.48-.04-2.22Z"></path><path class="cls-8" d="M42.92,316.9c-5.72-.92-8.17-3.83-7.11-9.06,.29-1.44,.77-2.92,1.49-4.2,1.93-3.46,4.24-6.59,8.87-6.23,4.3,.33,10.6,4.59,11.1,8.27,.26,1.92-.8,5.06-2.28,5.97-3.7,2.26-8,3.56-12.05,5.25Z"></path><path class="cls-8" d="M78.2,298.13c-2.71-.72-5.8-1.23-8.62-2.39-3.09-1.27-3.96-3.93-2.88-7.13,1.67-4.94,7.29-9.13,11.82-8.82,4.23,.29,9.39,5.72,10.2,10.7,.46,2.82-.49,5.04-3.21,5.99-2.2,.77-4.57,1.04-7.32,1.64Z"></path><path class="cls-4" d="M72.29,368.14c-2.36-.37-4.23-.52-6.03-.97-6.73-1.67-8.25-6.02-4.15-11.66,2.94-4.04,7.63-6.28,11.17-5.33,4.03,1.09,8.96,6.76,8.82,11.11-.06,1.83-1.51,4.28-3.07,5.23-1.99,1.21-4.73,1.19-6.73,1.62Z"></path><path class="cls-9" d="M58.43,279.19c-.14,6.09-3.4,9.19-9.46,8.98-5.22-.18-9.18-2.98-9.09-6.43,.12-5.04,6.7-12.26,11.08-12.16,4.14,.09,7.59,4.53,7.47,9.61Z"></path><path class="cls-3" d="M43.12,352.03c.69,.11,2.3,.3,3.88,.64,5.16,1.12,7.31,4.76,5.64,9.76-1.27,3.82-4.5,5.62-8.01,6.68-3.28,.98-6.07-.72-7.76-3.28-1.52-2.3-2.69-5.1-3.1-7.82-.6-3.95,2.52-5.95,9.36-5.98Z"></path><path class="cls-4" d="M82.7,344.71c-4.99-.16-10.68-4.63-10.56-8.32,.13-4.07,7.75-9.58,13-9.39,3.77,.14,6.73,3.72,6.63,8.03-.13,5.79-3.93,9.84-9.07,9.68Z"></path><path class="cls-10" d="M48.08,382.05c-1.08,3.01-1.82,6.21-3.33,8.99-1.85,3.42-4.82,3.82-7.85,1.44-3.19-2.5-5.47-5.71-4.88-9.93,.56-3.97,3.91-5.56,7.25-6.79,5.45-2,8.43,.24,8.81,6.29Z"></path><path class="cls-8" d="M56.08,407.93c-.02,5.17-3.01,8.85-7.14,8.76-3.95-.08-8.51-3.83-8.56-7.03-.05-3.5,6.35-8.87,10.46-8.76,2.99,.08,5.25,3.11,5.24,7.03Z"></path></svg>