<svg id="Layer_1" xmlns="http://www.w3.org/2000/svg" viewBox="0 0 507.89 470.62"><defs><style>.cls-2{fill:#046cdf}.cls-4{fill:#076ee0}.cls-5{fill:#056de0}.cls-6{fill:#066de0}</style></defs><path d="M482.66 185.58c1.52 35.55 3.04 71.17 4.58 107.29-30.18-2.21-59.77-4.38-89.97-6.6.6-33.47 1.19-66.73 1.78-100.01H378.9c-.07-.34-.29-.82-.24-1.26 2.15-16.97 4.16-33.96 6.57-50.89.87-6.12 1.29-6.25 7.45-6.51 15.84-.67 31.69-1.35 47.55-1.69 18.86-.41 37.72-.53 56.58-.65 9.49-.06 9.64.06 9.51 9.5-.22 15.87-.69 31.73-.92 47.59-.04 2.88-1.02 3.45-3.8 3.31-6.08-.3-12.19-.09-18.94-.09Z" style="fill:#026bdf"/><path d="M185.7 451.23c-10.55 1.04-20.67 2.04-30.91 3.05 1.71-70.31 3.4-140.28 5.11-210.42 4.08 3.63 8.08 7.96 12.83 11.21 7.25 4.96 9.59 11.23 9.02 19.9-.76 11.44-.19 22.96-.19 34.94 3.72-1.56 6.67-2.74 9.58-4.03 8.64-3.82 15.83-1.15 21.41 5.61 9.6 11.63 14.24 25.11 13 40.3-.94 11.65-4.18 22.77-8.03 33.64-20.36-3.78-28.36-19.18-34.53-36.33l-1.08.24c-.14 8.32-.46 16.65-.38 24.97.09 8.62.49 17.23.89 25.84.4 8.48.93 16.96 1.48 25.44.54 8.44 1.17 16.88 1.78 25.62Z" style="fill:#036cdf"/><path class="cls-2" d="M455.49 345.29h29.34c.08 1.37.22 2.7.24 4.02.4 31.98.79 63.95 1.17 95.93.06 5.18.04 5.14 5.36 5.55 5.08.39 10.15.88 15.34 1.34.34 5.68.65 10.99.95 16.14h-48.78c-1.22-41.27-2.41-81.92-3.62-122.98ZM407.67 343.54c-1.26-17.88-2.48-35.27-3.73-53.14 2.14.14 3.83.22 5.52.37 23.49 2.14 46.98 4.31 70.47 6.42 2.06.18 3.46.47 3.66 3.07.99 13.2 2.15 26.38 3.23 39.57.04.47-.11.95-.23 1.86-11.14-.6-22.19-1.14-33.23-1.93-.79-.06-1.82-1.8-2.11-2.92-1.02-3.94-1.77-7.96-3.19-11.88-.55 5.47-1.11 10.94-1.7 16.75-12.88.61-25.54 1.21-38.68 1.84Z"/><path class="cls-6" d="M412.87 346.28h24.34c1.59 41.32 3.17 82.6 4.77 124.13-1.11.08-1.94.27-2.75.19-13.68-1.34-27.34-2.76-41.03-4.03-2.55-.24-3.89-.99-3.8-3.8.07-2.21-.3-4.43-.5-6.98 7.07-1.36 13.87-2.87 20.74-3.89 2.99-.44 3.55-1.62 3.39-4.37-1.78-31.06-3.46-62.13-5.14-93.2-.14-2.58-.02-5.18-.02-8.06Z"/><path class="cls-2" d="M0 167.63c4.59-1.57 8.88-3.14 13.24-4.49 15-4.66 30.22-7.78 46.06-6.95 18.07.95 32.01 11.26 37.64 27.77.92 2.69.69 4.17-2.04 5.61-11.68 6.16-23.68 11.15-37.01 12.44-10.22.99-19.6-1.27-28.31-6.51-11.17-6.72-20.4-15.61-28.39-25.83-.37-.47-.61-1.03-1.18-2.04ZM100.5 161.2c-14.24-10.07-27.42-20.03-36.4-34.23-2.71-4.3-4.67-9.57-5.29-14.6-2.27-18.3 2.03-35.94 6.37-53.66.69.24 1.12.26 1.33.48 12.3 13.5 23.89 27.52 32.87 43.57 7.79 13.93 8.2 28.56 5.04 43.64-.99 4.74-2.46 9.38-3.92 14.81ZM436.87 57.77c11.1 1.03 20.65 3.98 28.79 10.56 5.41 4.37 7.53 10.03 6.16 16.97-2.54 12.95-17.92 27.57-30.96 29.49-8.61 1.27-15.72-1.38-21.57-7.71-14.42-15.61-7.92-41.4 12.17-48.12 1.98-.66 4.1-.91 5.41-1.19Z"/><path class="cls-5" d="M39.77 437.16c7.84-11.74 18.41-17.94 32.16-18.26 10.35-.24 20.71-.55 31.04-.14 8.27.33 12.67 4.33 14.06 12.49 2.21 12.96.92 20.7-14.67 25.22-10.56 3.06-21.22 3-31.7-.81-11.43-4.15-21.21-11.01-30.91-18.5ZM95.48 256.11c-1.46-22.53-2.55-43.69 12.43-61.38 8.28-9.78 19.45-15.31 31.8-19.26 4.09 7.76 4.82 15.82 3.87 24.1-2.46 21.28-13.81 36.77-31.72 47.76-4.94 3.03-10.23 5.51-16.37 8.78Z"/><path class="cls-2" d="M117.66 29.94c5.28 10.14 10.67 20.23 15.82 30.45 5.24 10.41 6.54 21.39 4 32.81-2.43 10.93-4.79 21.88-7.3 33.39-1.26-.86-1.87-1.08-2.18-1.51-8.73-12.33-17.5-24.63-26.09-37.05-6.32-9.13-6.91-18.99-1.96-28.76 4.79-9.45 10.31-18.52 15.51-27.76.3-.54.57-1.1.85-1.65.45.03.9.06 1.35.1Z"/><path class="cls-5" d="M355.98 61.42c-13.57 13.3-26.78 25.36-44.01 31.39-17.58 6.16-35.61 4.22-54.45 1.29 3.13-3.41 5.55-6.37 8.3-8.98 7.88-7.46 15.79-14.89 23.89-22.11 4.48-4 9.86-6.28 15.99-6.5 16.55-.59 32.78 2.02 50.28 4.9ZM213.15 0c-1.18 4.45-1.91 7.82-2.97 11.09-2.94 9.14-5.83 18.3-9.09 27.32-3.88 10.74-10.62 19.53-19.93 26.12-8.45 5.98-17.16 11.61-25.77 17.36-.78.52-1.73.79-3.14 1.42 1.42-15.68 2.49-30.91 8.63-45.07 1.51-3.5 4.45-6.83 7.55-9.11 10.04-7.38 20.4-14.34 30.78-21.24C203.32 5.16 207.8 3 213.15 0Z"/><path class="cls-2" d="M158.11 98.53c15.32-13.47 30.8-24.19 52.05-18.2 11.04 3.12 22 6.52 32.99 9.82.45.13.82.53 1.47.97-10.14 9.9-20.35 19.39-33.3 25.33-5.57 2.56-11.26 3-17.16 1.41-13.29-3.58-24.37-11.19-36.05-19.33Z"/><path class="cls-5" d="M180.4 147c14.97-2.03 29.96-3.53 44.94.17 6.78 1.68 12.24 5.5 16.55 10.98 5.71 7.27 9.57 15.47 12.17 24.29.24.81.25 1.68.52 3.62-8.24.63-16.23 1.49-24.24 1.8-13.53.54-24.11-5.55-32.43-15.75-6.35-7.8-12.31-15.91-18.44-23.89l.93-1.23Z"/><path class="cls-4" d="M505.42 314.74c-12.67 1.02-14.72-.39-14.97-11.96-.57-27.09-.77-54.19-1.05-81.28-.11-10.21-.02-20.43-.02-31.17 5.49.25 10.89.5 16.04.73v123.69Z"/><path class="cls-5" d="M195.44 249.26c-.46-.14-1.08-.22-1.57-.5-11.56-6.59-22.39-14.13-31.29-24.18-5.68-6.41-8.85-13.82-9.17-22.41-.48-13.08 2.92-25.39 7.26-37.67 23.03 23.72 35.82 51.34 34.77 84.76Z"/><path class="cls-6" d="M182.56 126.07c-6.45 8.56-12.18 16.36-18.11 23.99-6.66 8.56-15.69 13.72-25.73 17.34-9.81 3.53-19.6 7.14-29.74 10.25 6.22-18.78 13.45-36.49 33.91-44.19 11.69-4.4 23.82-6.38 36.18-7.38.7-.06 1.41 0 3.5 0ZM291.36 42.92c-1.96 1.67-3.81 3.5-5.91 5-6.6 4.71-13.14 9.52-19.97 13.86-14.1 8.96-29.27 8.73-44.76 4.47-2.97-.82-5.87-1.86-9.18-2.93.65-.88.92-1.43 1.35-1.79 7.93-6.66 15.8-13.38 23.84-19.9 7.97-6.46 17.16-8.42 27.14-6.34 9.13 1.9 18.2 4.09 27.29 6.14.07.5.13.99.2 1.49Z"/><path d="M384.09 190.53q9.58.06 9.48 8.95c-.29 36.58-.56 73.17-.84 109.75-.01 1.84 0 3.68 0 5.89-5.57-.36-10.61-.68-16.26-1.05 2.54-41.22 5.07-82.28 7.61-123.55Z" style="fill:#0a70e0"/><path class="cls-6" d="M309.37 285.05v11.45c21.15 1 42.06 1.99 63.61 3-.5 3.54-.83 6.82-1.53 10.03-.17.76-1.54 1.57-2.5 1.79-13.01 2.99-25.96 6.29-39.08 8.65-8.24 1.49-16.7.87-24.78-1.94-13.47-4.68-16-17.38-5.2-26.68 2.65-2.28 5.85-3.92 9.49-6.3Z"/><path class="cls-5" d="M295.63 123.94c-23.61 22.92-43.23 24.6-72.18 3.99 21.78-21.7 50.24-24.92 72.18-3.99ZM94.52 55.25c-27.38 4.55-50.38-14.89-55-46.49 27.61-1.79 53.32 14.38 55 46.49Z"/><path class="cls-4" d="M244.25 241.62c-26.18-2.69-39.02-19.21-42.55-46.23 2.63 1.5 5.02 2.71 7.25 4.16 5.96 3.88 11.9 7.79 17.78 11.8 10.08 6.89 15.21 16.9 17.74 28.51.08.36.11.75.09 1.11-.02.22-.19.43-.3.64Z"/></svg>