<svg id="Layer_1" xmlns="http://www.w3.org/2000/svg" viewBox="0 0 716.38 372.23"><defs><style>.cls-1{fill:#026bdf}.cls-2{fill:#046ce0}.cls-3{fill:#046cdf}.cls-4{fill:#036cdf}.cls-6{fill:#fdfdfe}.cls-7{fill:#1174e1}.cls-9{fill:#056de0}.cls-10{fill:#0e72e1}.cls-11{fill:#0d71e1}.cls-12{fill:#0c71e0}</style></defs><path class="cls-1" d="M234.17 251.45c0-12.62.08-25.24-.07-37.87-.03-2.45.72-3.87 2.77-5.13 3.82-2.36 7.38-5.15 11.21-7.51 9.88-6.1 16.91-14.7 22.18-24.86 1.06-2.05 2.36-2.77 4.66-2.77 19.62-.02 39.23-.11 58.85-.34 2.61-.03 3.72.81 4.47 3.25 4.33 14.09 8.87 28.11 13.18 42.2.44 1.45.36 3.62-.45 4.8-20 29.01-40.15 57.9-60.18 86.88-1.81 2.62-3.49 3.06-6.47 1.91-15.39-5.9-30.85-11.61-46.33-17.28-2.2-.81-3.05-1.9-3.03-4.31.12-12.99.06-25.99.06-38.99h-.84Z"/><path class="cls-4" d="M9.2 372.21v-33.57c2.07.12 3.76.3 5.44.3 22.35-.04 44.7-.08 67.05-.19 14.99-.08 29.99-.04 44.97-.55 6.17-.21 12.42-1.23 18.43-2.73 26.29-6.56 52.5-13.46 78.76-20.13 1.59-.4 3.51-.33 5.09.15 18.39 5.63 36.73 11.43 55.12 17.04 2.72.83 3.73 2.06 3.66 4.96-.19 8.73-.07 17.46-.07 26.75-2.81.3-6 .87-9.19.94-43.85.89-87.71 1.47-131.55 2.63-44.34 1.18-88.67 2.92-133 4.4-1.48.05-2.97 0-4.72 0Z"/><path class="cls-1" d="M413.02 6.31c.31 7.96.55 15.81.95 23.65.84 16.6 1.73 33.19 2.71 49.78.13 2.24-.41 3.31-2.64 4.05-25.47 8.49-50.89 17.11-76.37 25.57-1.01.34-3.06-.17-3.58-.97-10.29-15.81-20.43-31.72-30.58-47.62-.19-.3-.23-.7.96.2 6.7-7.41 13.13-15.1 20.16-22.18 10.48-10.55 21.35-20.7 32.14-30.93 1.07-1.02 2.72-2.04 4.1-2.04 16.99-.06 33.98.08 50.98.17.24 0 .48.12 1.18.31Z"/><path class="cls-4" d="M475.54 254.16c39.99 18.26 79.1 36.13 118.48 54.12-2.25 5.18-4.42 10.2-6.61 15.2-4.31 9.84-8.56 19.7-13.04 29.46-.59 1.29-2.3 2.83-3.59 2.93-28.76 2.27-57.53 4.36-86.3 6.47-.35.03-.71-.11-1.28-.21-2.52-35.6-5.04-71.18-7.65-107.97Z"/><path class="cls-9" d="M138.59 131.78c.06-34.16 28-61.8 62.39-61.7 34.11.09 61.78 27.84 61.76 61.92-.02 34.19-27.92 61.77-62.36 61.66-34.18-.11-61.85-27.82-61.79-61.88Zm19.45 5.53c-1.11 15.21 15.32 33.09 33.66 37.13 20.03 4.41 39.39-7.28 44.9-18.92-.96-.29-1.9-.6-2.85-.87-5.86-1.7-11.97-2.82-17.48-5.3-3.1-1.4-5.58-4.76-7.61-7.73-1.69-2.48-.18-5.23 2.05-6.89 1.69-1.26 4.11-2.85 5.8-2.47 2.59.58 3.93 3.06 3.54 6.21-.1.79 1.41 2.34 2.42 2.61 6.36 1.7 12.79 3.15 19.55 4.76.62-2.45 1.13-4.44 1.72-6.77-2.9-.52-5.43-.98-7.77-1.4-.64-3.44-1.22-6.52-1.87-9.97 3.52.69 6.53 1.27 9.56 1.86 2.13-16.39-14.5-35.96-33.8-40.15-20.46-4.43-43.36 7.57-49.21 26.12 6.48 1.73 12.99 3.37 19.42 5.24 2.97.87 5.98 1.9 8.64 3.42 2.95 1.68 4.47 4.61 3.03 7.97-.63 1.48-2.32 3.07-3.81 3.43-1.2.29-2.86-1.14-4.26-1.91-.61-.34-1-1.2-1.62-1.38-8-2.32-16.02-4.55-24.03-6.8q-1.12 3.57 2.15 4.52c6.72 1.95 7.32 2.75 6.91 9.32-3-.68-6-1.35-9.04-2.04Z"/><path class="cls-4" d="M464.35 359.4c-25.57-.63-51.74-1.27-78.46-1.92.31-6.08.57-11.88.9-17.67.81-14.1 1.78-28.19 2.41-42.29.23-5.1-.47-10.23-.46-15.35 0-1.04 1.15-2.82 2.05-3.02 23.62-5.35 47.29-10.53 70.94-15.74.1-.02.23.08.4.15.73 31.74 1.47 63.51 2.22 95.84ZM615.93 281.21c15.66 3.57 30.87 7.04 46.07 10.49 16.81 3.81 33.63 7.59 50.45 11.39 1.67.38 3.33.42 3.35 3.03.09 12.63.37 25.25.57 37.88 0 .48-.15.95-.35 2.09-40.46 2.41-80.95 4.81-122.16 7.26 7.37-24.1 14.65-47.88 22.07-72.13Z"/><path class="cls-9" d="M488.22 160.82c1.12 4.09 2.18 8.19 3.37 12.25.87 2.95 3.25 3.68 5.94 3.36 2.5-.29 3.57.75 4.16 3.05.84 3.25 1.95 6.43 3.07 10.04-9.64 2.86-19.06 5.65-28.94 8.58-1.32-4.21-2.61-8.32-3.87-12.36 5.42-3.67 5.61-4.03 3.78-10.39-3.19-11.04-6.51-22.05-9.71-33.09-.79-2.73-2.36-4.21-5.28-4.47-.99-.09-2.49-.85-2.77-1.65-4.82-13.78-9.49-27.6-14.38-41.96 5.57-1.44 10.81-2.87 16.1-4.14 3.48-.84 7.58-2.86 10.37-1.75 2.63 1.04 3.96 5.45 5.78 8.42 11.23 18.33 22.44 36.67 33.67 55.01.57.93 1.19 1.83 1.79 2.75.29-.11.58-.22.86-.33-2.34-7.26-4.47-14.61-7.21-21.72-.55-1.44-3.39-2.01-5.17-2.97l-.83.99c-6.57-14.8-13.13-29.6-19.85-44.72 8.74-3.18 17.15-6.23 26.01-9.45 5.35 16.33 10.63 32.41 15.97 48.69-.87.5-1.57.96-2.32 1.33-3.04 1.5-3.57 3.41-2.12 6.67 6.63 14.96 13 30.03 19.67 45.55-7.12 2.41-14.03 4.83-21.01 6.99-.75.23-2.16-.92-2.97-1.73-7-6.97-13.93-14.01-20.9-21-.86-.86-1.87-1.58-2.81-2.37-.15-.17-.31-.33-.46-.5.02.3.05.6.07.9ZM624.1 69.17c-1.92-8.98-3.83-17.96-5.83-27.32 4.1-1.11 8.02-2.18 12.44-3.38 5.19 20.45 10.3 40.58 15.52 61.11-7.27 1.63-14.17 3.25-21.12 4.62-.72.14-2.15-.96-2.53-1.8-1.83-4.1-3.33-8.35-5.11-12.48-1.87-4.33-4.69-5.99-8.42-5.2-3.13.66-4.16 2.4-3.09 5.45 2.06 5.9 4.25 11.75 6.23 17.67 1.21 3.61 3.8 5.49 7.33 5.18 3.67-.32 7.4-1.14 10.85-2.41 12.35-4.53 14.74-3.75 20.49 8.1 2.07 4.26 3.77 8.71 5.56 13.1 2.72 6.65.54 12.08-6.37 14.32-9.5 3.08-19.12 5.82-28.79 8.29-4.77 1.22-9.47.35-13.64-3.31.57 2.07 1.13 4.13 1.82 6.63-4.49 1.48-8.83 2.9-13.79 4.53-2.75-8.12-5.49-16.17-8.34-24.59 6.17-.69 11.84-1.41 17.54-1.86.86-.07 2.24.89 2.68 1.73 3 5.74 5.49 7.32 11.85 6.75 2.35-.21 4.72-.67 6.95-1.41 2.76-.91 5.54-2.04 4.59-6-1.32-5.51-3.66-7.91-7.77-7.32-2.45.35-4.84 1.2-7.24 1.88-5.21 1.47-10.39 1.28-15.5-.37-1.36-.44-2.58-1.3-3.72-1.9 1.14-3.33 2.5-6.18 3.08-9.18 1.54-8.02-3.35-14.53-11.47-15.21-2.54-.21-3.63-1-4.39-3.42-3.06-9.77-6.35-19.47-9.57-29.19-2.56-7.73-.65-12.82 6.83-16.24 7.03-3.22 14.24-6.08 21.52-8.69 6.46-2.31 12.26.64 14.85 7.04 1.03 2.55 1.92 5.15 2.85 7.73.88 2.44 1.73 4.88 2.59 7.33.38-.06.75-.12 1.13-.17Z"/><path class="cls-4" d="M57.87 223.48c-9.53-2.24-18.86-4.38-28.16-6.65-8.49-2.07-16.93-4.32-25.41-6.41-1.77-.44-2.73-1.02-2.76-3.17C1.08 176.53.52 145.81 0 115.1c0-.49.1-.98.21-1.86 1.15.5 2.14.89 3.09 1.35 19.93 9.5 39.85 19.04 59.81 28.48 1.81.86 2.71 1.65 2.49 3.85-2.41 24.85-4.71 49.72-7.05 74.58-.03.35-.23.69-.69 1.98ZM714.04 283.81c-28.45-5.52-56.32-10.94-84.46-16.4 1.34-10.35 2.63-20.36 3.93-30.36 1.18-9.03 2.49-18.05 3.49-27.11.28-2.53 1.23-3.68 3.62-4.35 6.73-1.89 13.35-4.14 20.1-5.93 1.69-.45 4-.27 5.51.55 14.14 7.7 28.2 15.56 42.2 23.51 1.3.74 2.9 2.36 2.97 3.65 1 18.56 1.77 37.13 2.63 56.43ZM3.18 231.66c20.8 5.32 41.69 10.62 62.53 16.07 1.06.28 2.53 1.78 2.57 2.76.92 22.08 1.66 44.18 2.43 66.27.01.36-.13.72-.3 1.6-22.17.93-44.43 1.87-67.23 2.83v-89.54ZM371.4 365.18h-59.93c-.81-13.64-1.64-27.07-2.36-40.52-.05-1.02.47-2.2 1.05-3.1 15.78-24.45 31.6-48.87 47.43-73.3.2-.31.47-.57.68-.81.35.1.72.1.77.23 3.73 9.67 7.44 19.34 11.1 29.03.3.79.34 1.71.35 2.58.36 27.99.71 55.98 1.05 83.96 0 .59-.09 1.19-.14 1.92Z"/><path class="cls-3" d="M393.62 120.56c.14-8.57 2.91-12.25 10.21-14.34 8.52-2.45 17.06-4.84 25.6-7.21 8.07-2.24 12.97-.37 15.95 7.44 3.38 8.84 5.93 18.02 8.57 27.13 5.35 18.48 10.52 37.01 15.73 55.52.5 1.8.86 3.65 1.08 5.5.59 4.87-1.78 8.76-6.45 10.05-11.07 3.07-22.18 6.02-33.3 8.89-4.53 1.17-8.03-.32-9.9-4.59-1.84-4.21-3.1-8.68-4.47-13.09-7.35-23.61-14.67-47.24-21.97-70.87-.55-1.77-.86-3.62-1.06-4.44Zm55.35 68.79c-.04-.28-.03-1.18-.29-2-3.8-12.26-7.56-24.53-11.5-36.75-1.3-4.04-4.16-5.18-8.32-3.82-4.15 1.36-5.65 3.97-4.3 8 3.83 11.46 7.74 22.9 11.64 34.34 1.02 2.99 2.8 5.28 6.04 6.09 4.43 1.1 6.74-.72 6.72-5.86Z"/><path class="cls-4" d="M85.85 232.11c11.15-.53 22.11-1.08 33.07-1.56 10.35-.46 10.31-.41 14.64 8.89 8.33 17.9 16.72 35.77 25.09 53.65.68 1.46 1.38 2.92 2.24 4.75-1.17.44-2.13.89-3.15 1.17-21.05 5.87-42.12 11.7-63.16 17.61-2.42.68-3.64.58-3.83-2.44-1.64-26.82-3.41-53.63-5.12-80.45-.02-.36.1-.73.22-1.62ZM429.13 11.28c12.74-1.32 25.01-2.58 37.28-3.86 4.1-.43 8.18-1.03 12.29-1.24 1.19-.06 3.09.64 3.56 1.55 8.89 17.45 17.62 34.99 26.7 53.15-27.58 8.25-54.63 16.34-82.33 24.62.84-24.94 1.66-49.32 2.5-74.23Z"/><path class="cls-9" d="M506.97 74.24c10.05-2.61 19.56-5.07 29.62-7.68l11.9 39.67c-.16.41-.18.74-.35.85-6.08 4.13-6.12 4.83-.41 9.66 2.64 2.24 5.3 4.46 8.39 7.05 2.23-4.71 4.42-8.89 6.18-13.23 1.1-2.72-1.05-3.89-3.27-4.29-1.67-.3-3.45-.06-5.59-.06-4.03-13.45-8.15-27.17-12.41-41.41 8.48-2.73 16.83-5.41 25.71-8.27 4.51 15.71 8.93 31.11 13.54 47.16-5.72.47-6.42 5.13-7.98 9.15-2.12 5.47-4.31 10.92-6.46 16.38-.32.81-1.02 1.81-.79 2.44 2.18 5.82 4.3 11.68 7.01 17.25.55 1.14 3.47 1.42 5.34 1.52 1.52.09 3.09-.68 4.98-1.16 1.56 4.59 3.08 9.04 4.78 14.04-12.96 4.17-25.7 8.26-38.9 12.5-.86-4.47-1.64-8.57-2.45-12.8 1.06-.52 1.93-.94 2.81-1.37 3.43-1.66 4.66-4.33 3.69-8.02-1.59-6.04-3.17-12.07-4.77-18.11-.19-.72-.31-1.61-.8-2.07-5.37-5.02-10.76-10.02-16.28-14.88-.96-.85-2.59-1.54-3.79-1.39-4.52.55-5.5-2.4-6.64-5.74-4.2-12.27-8.57-24.49-13.05-37.21Z"/><path class="cls-4" d="M208.2 216.7c.95 13.27 1.86 26.09 2.79 38.91.97 13.45 1.83 26.9 3.01 40.33.29 3.28-.81 4.28-3.77 4.9-6.84 1.42-13.63 3.08-20.37 4.89-2.43.66-3.52.05-4.62-2.14-12.6-24.95-25.29-49.87-38.02-74.76-.93-1.82-.92-3.05.48-4.63 4.04-4.59 7.84-9.39 11.9-13.97.69-.78 2.54-1.55 3.21-1.17 11.04 6.14 23.21 6.29 35.3 6.95 3.22.18 6.44.43 10.1.68ZM196.56 45.62V19.3c42.49-2.19 84.43-4.35 127.4-6.56-21.24 22.43-44.2 41.59-66.08 62.21-3.2-3.06-6.44-5.66-9.09-8.76-10.79-12.61-24.94-17.66-40.95-18.92-3.83-.3-7.63-1.11-11.29-1.66Z"/><path class="cls-2" d="M414.19 216.91c-12.99 3.34-25.29 6.5-38.03 9.78-1.53-4.4-2.98-8.59-4.52-13.02 4.87-2.12 5.86-5.89 4.61-10.53-2.73-10.12-5.5-20.22-8.28-30.33-.2-.71-.42-1.6-.94-2-1.37-1.06-2.91-1.91-4.38-2.84-.32 1.47-1.13 3.04-.88 4.4.69 3.63 1.84 7.18 2.9 11.12-2.78.5-5.43.97-8.39 1.5-6.13-19.83-12.16-39.35-18.37-59.44 16.01-4.31 31.71-8.54 47.77-12.86 6.16 18.76 12.19 37.11 18.38 55.94-2.63 1.1-5.19 2.18-7.73 3.24-1.54-2.66-2.64-5.24-4.37-7.28-.92-1.09-2.95-1.23-4.48-1.81-.44 1.43-1.56 3.06-1.22 4.27 2.85 9.96 5.64 19.96 9.17 29.68 1.64 4.52 5.51 7.33 11 6.67.9-.11 2.47.6 2.81 1.35 1.75 3.82 3.2 7.78 4.94 12.17Z"/><path class="cls-4" d="M40 114.54c11.75-21.16 22.99-41.41 34.23-61.65 16.57 12.83 33.61 26.03 51.13 39.59-8.69 13.39-10.93 28.31-11 44.75-25.21-7.69-49.86-15.21-74.35-22.69Z"/><path class="cls-3" d="M706.1 78.14c1.4 42.44 2.78 84.47 4.18 127.13-7.57-2.59-14.65-4.91-21.61-7.53-.89-.34-1.5-2.16-1.74-3.39-5.69-28.67-11.31-57.36-16.95-86.04-1.59-8.09-3.2-16.18-4.79-24.27-.21-1.06-.32-2.15-.52-3.55 13.89-.79 27.43-1.56 41.43-2.36Z"/><path class="cls-4" d="M184.58 13.21c.4 11.07.82 21.53 1.08 31.99.02.72-1.02 1.77-1.82 2.14-1.22.56-2.64.71-3.99.95-13.56 2.41-24.69 8.77-33.57 19.45-5.39 6.49-5.58 5.95-12.87 1.83-13.78-7.8-27.74-15.27-41.64-22.86-1.94-1.06-3.95-1.97-6.17-3.06 3.23-7.17 6.23-14.01 9.44-20.74.41-.86 1.87-1.63 2.91-1.73 25.1-2.39 50.21-4.68 75.32-6.98 3.59-.33 7.17-.63 11.3-.99ZM1.27 26.52h73.97c-.77 1.54-1.15 2.44-1.64 3.28-13.15 22.71-26.35 45.39-39.43 68.14-1.26 2.2-2.49 2.94-5.03 2.37C21.09 98.53 13 96.95 4.9 95.43c-1.83-.35-2.9-.79-2.93-2.97-.25-21.75-.59-43.49-.9-65.24 0-.23.13-.46.2-.7ZM637.48 1.83c22.45-.62 43.91-1.22 66.1-1.83v63.56c-.3.04-1.01.2-1.71.2-14.74.16-29.48.27-44.22.5-2.18.03-3.33-.56-4.12-2.73-4.61-12.54-10.02-24.83-13.86-37.6-2.06-6.85-1.52-14.49-2.18-22.1Z"/><path class="cls-3" d="M628.31 24.87c-36.19 10.02-71.85 19.9-107.04 29.65-5.65-14.37-11.2-28.48-16.96-43.11 6.41-.53 12.78-1.37 19.17-1.54 30.58-.83 61.17-1.49 91.76-2.15 1.1-.02 2.74.32 3.24 1.08 3.31 5.1 6.38 10.35 9.84 16.07ZM584.93 284.03c-26.45-10.67-52.47-21.17-78.49-31.66l.15-1.01c36.67-12.41 73.35-24.83 110.41-37.38-10.63 23.21-21.2 46.31-32.07 70.05ZM77 151.6c11.91-1.02 23.82-2.08 35.75-2.99.79-.06 1.97.8 2.43 1.55.83 1.36 1.32 2.96 1.85 4.49 4.94 14.24 13.46 26.11 24.16 36.52 2.12 2.06 2.55 3.69.84 6.35-2.97 4.61-5.35 9.6-8.27 14.25-.75 1.19-2.6 2.43-3.91 2.4-12.98-.35-25.95-.97-38.92-1.51-1.81-.07-3.24-.15-3.68-2.62-3.39-19.05-6.93-38.07-10.41-57.1-.06-.33.09-.7.18-1.35Z"/><path class="cls-2" d="M294.45 74.28c12.09 27.2 23.68 53.3 35.42 79.72-14.79.97-29.13 1.91-43.88 2.88 0-2.1.03-3.94 0-5.78-.17-9.74-.57-19.49-.46-29.23.08-7.15-1.92-13.52-5.57-19.52-1.62-2.67-3.2-5.36-4.44-7.46 6.25-6.8 12.37-13.46 18.94-20.62Z"/><path class="cls-11" d="M564.88 177.13c5.18-3.15 9.01-3.65 12.96.67 3.15 3.44 7.16 6.1 11.63 8.66-1.37-3.91-1.85-8.6-4.4-11.45-1.79-2-3.12-3.67-3.93-6.46 3.73-1.4 7.28-2.74 11.16-4.2.63 2.24 1.16 4.13 1.77 6.27-3.29 1.24-2.75 3.48-1.84 6.1 2.57 7.41 4.95 14.89 7.39 22.32-5.83 3-6.77 2.84-10.9-1.71l-10.94-12.08c-.46.25-.93.5-1.39.75 1.54 3.95 2.2 8.67 4.85 11.62 2.78 3.11 3.6 2.37 4.73 6.74-3.16.87-6.34 1.74-10.34 2.85-1.18-11.02-2.18-21.88-10.74-30.08Zm12.24 7.78c-.33-.12-.63-.27-.95-.3-.09-.01-.22.31-.33.48.31.17.61.33.92.5.1-.19.2-.38.35-.67Z"/><path class="cls-10" d="M422.57 252.79c-3.93 1.1-7.86 2.21-12.29 3.45-.14-1.52-.71-3.11-.25-3.51 2.64-2.32.89-4.59.21-6.84-.98-3.22-1.86-6.51-3.24-9.57-.77-1.71-2.76-2.84-3.66-4.52-1.3-2.41-2.12-5.09-3.32-8.09 4-1.27 7.37-2.34 11.38-3.61-.25 3.77 4.06 6.68.15 10.25-.3.27-.07 1.55.32 2.01.34.4 1.32.55 1.91.39 2.75-.74 5.46-1.63 8.56-2.58-1.47-2.76-.26-6.7-5.06-6.86-.64-.02-1.2-2.47-2.04-4.36 3.99-.88 7.56-1.66 12.35-2.71-.43 2.69-.75 4.64-1.03 6.61-.07.47-.08 1 .04 1.45 1.62 5.9 3.06 11.86 5.08 17.62.43 1.23 2.98 1.72 4.56 2.56.22-.31.43-.62.65-.93.69 1.56 1.38 3.12 2.26 5.1-4.79 1.41-9.29 2.75-13.82 4.01-.34.09-.84-.4-1.27-.62-.17-1.56-.33-3.12-.5-4.68.33.15.67.31 1 .46.94-1.38 2.83-2.92 2.63-4.11-.49-2.84-1.96-5.5-3.12-8.46-3.75 1.31-7.09 2.48-10.58 3.7.64 2.2 1.01 4.05 1.72 5.74.51 1.2 1.59 3.2 2.23 3.13 3.95-.43 4.21 2.54 5.14 4.96Z"/><path class="cls-11" d="M398.26 243.32c1.78-.51 3.32-.96 5.35-1.54 1.59 4.98 3.12 9.79 4.74 14.89-3.08.51-5.79 4.02-8.51-.2-7.24 7.25-15.27 6.67-21.28-1.62-3.8-5.24-4.79-11.27-3.74-17.5.97-5.75 7.67-10.91 13.96-10.27 3.27.33 6.22.38 9.51-1.25 1.47 3.61 2.81 6.9 4.33 10.65-3.37 1.2-6.48 2.3-9.65 3.43-.42-.57-.76-.93-.99-1.35-1.38-2.58-3.09-4.72-6.44-3.85-3.3.86-4.6 3.49-4.5 6.55.08 2.69.48 5.51 1.43 8.01 1.94 5.11 5.5 6.73 10.38 5.28 4.93-1.46 6.39-4.04 5.54-9.75-.05-.36-.06-.73-.13-1.49Z"/><path class="cls-12" d="M432.88 227.6c-.07-7.13 3.01-11.88 8.16-13.76 6.71-2.44 13.46-.76 17.58 4.56 3.32 4.29 4.85 9.31 4.91 14.67.06 5.65-3.59 8.69-8.32 10.88-5.05 2.34-9.93 2.66-14.37-1.12-5-4.25-7.46-9.86-7.96-15.24Zm24.81 3.11c-1.07-2.34-2.57-7.29-5.38-11.32-2.96-4.25-9.48-3.09-10.92 1.32-1.77 5.43 2.15 15.12 7.27 17.95 5.02 2.78 8.96.46 9.02-7.95Z"/><path class="cls-11" d="M520.27 214.69c-.4 7.9-3.57 11.67-11.81 13.49-7.26 1.61-12.24-.82-15.07-7.64-1.04-2.51-1.87-5.21-2.19-7.9-1.27-10.62 7.7-18.73 18.21-16.59 3.68.75 6.55 2.87 7.75 6.39 1.35 3.97 2.09 8.16 3.1 12.25Zm-7.69-1.38c-.68-2.42-1.22-5.78-2.58-8.77-1.42-3.1-4.31-4.37-7.82-3.61-3.42.74-5.73 2.76-5.83 6.33-.15 5.27 1.35 10.15 5.17 13.95 3.47 3.45 8.57 2.1 10.08-2.57.45-1.4.55-2.92.97-5.33Z"/><path class="cls-10" d="M572.71 200.59c-1.19 2.58-1.68 4.76-2.97 6.24-3.94 4.51-13.15 5.71-18.42 2.7-5.99-3.43-9.78-11.92-8.34-18.69 1.24-5.84 5.02-9.6 10.74-10.57 5.78-.98 10.66.85 13.38 6.01 2.4 4.55 3.81 9.61 5.61 14.32Zm-24.57-9.85c1.78 4.52 3.01 8.85 5.22 12.6.86 1.46 4 2.34 6 2.2 2.66-.2 5.72-1.56 5.66-4.92-.09-5.64-1.85-10.97-6.44-14.49-1.46-1.12-4.59-1-6.52-.28-1.54.57-2.42 2.91-3.93 4.9Z"/><path class="cls-11" d="M480.5 206.02c.73-1.4 1.28-2.45 1.83-3.51.86.87 2 1.59 2.51 2.63 1.38 2.76 2.49 5.65 3.81 8.72-3.25.98-5.82 2.21-8.48-1.16-1.14-1.44-4.16-2.17-6.2-1.96-2.89.29-4.84 2.57-5.15 5.65-.43 4.29.78 8.23 3.61 11.46 2.83 3.23 10.61 2.03 11.31-2.08.81-4.74 4.04-4.93 7.61-6.14 1.13 3.48 2.23 6.86 3.63 11.2-2.61.33-4.87.54-7.08.95-.74.14-1.44.73-2.07 1.23-7.07 5.58-15.16 4.34-19.09-3.75-2.05-4.21-3-9.28-3.16-14.01-.2-6.04 7.2-10.92 13.84-9.94 1.1.16 2.18.49 3.08.7Zm.89.29c-.09.06-.23.11-.24.19-.01.07.1.17.16.26.09-.06.23-.11.24-.19.01-.07-.1-.17-.16-.26Z"/><path class="cls-12" d="M513.92 190.85c3.98-1.08 7.4-1.84 10.68-2.96 2.86-.98 4.28-.27 4.45 3.26-5.03 1.04-3.51 4.26-2.29 7.61 1.67 4.56 3.11 9.21 4.64 13.78 8.24-.87 8.89-1.68 7.28-9.32 1.06-.38 2.17-.78 3.66-1.32 2.3 4.58 4.52 8.98 6.91 13.74-7.94 2.18-15.48 4.28-23.05 6.27-.66.17-1.95-.12-2.17-.58-.36-.74-.13-1.79-.06-2.71.14-1.72.86-3.56.44-5.11-1.15-4.2-2.67-8.32-4.23-12.4-.96-2.51-.84-5.76-4.54-6.63-.72-.17-1.03-2.09-1.73-3.64Z"/><path class="cls-7" d="M626.17 191.65c-7.58 2.2-14.61 4.23-22.01 6.38-.29-1.31-1.05-2.92-.66-3.28 2.58-2.39.61-4.67.04-6.89-.96-3.74-2.06-7.46-3.34-11.11-.95-2.71-.49-6.39-4.53-7.28-.32-.07-.45-1.05-.81-1.96 6.67-2.16 13.15-4.26 20.11-6.52.65 2.32 1.31 4.41 1.76 6.54.12.55-.27 1.42-.72 1.8-.33.28-1.55.17-1.66-.08-1.62-3.74-4.13-1.44-6.29-.95-1.44.33-2.81.95-4.55 1.56.72 2.52 1.32 4.91 2.12 7.23.22.64 1.05 1.07 1.61 1.6.47-.5.94-1 1.4-1.5.95-1.05 1.9-2.1 2.85-3.14.42.19.83.38 1.25.58.66 2.37 1.33 4.74 1.93 6.91h-7.38c.61 6.72 1.42 8.1 4.44 7.4 6.93-1.6 6.93.33 5.58-7.31 1.31-.49 2.68-1 4.49-1.68 1.44 3.86 2.8 7.52 4.36 11.71Z"/><path class="cls-10" d="M666.11 179.51c-4.76 1.54-8.65 2.79-12.74 4.11-.37-.98-1.04-1.83-.91-2.53 1.36-7.06.25-10.12-5.79-13.98-3.84-2.45-7.99-4.44-11.8-6.93-1.18-.77-1.7-2.54-2.79-4.28 3.44-1.07 6.36-1.98 10.02-3.12.18 2.04.33 3.68.54 6.02 2.54 1.51 5.73 3.41 9.51 5.66.94-3.38 1.78-6.39 2.43-8.71-1.77-1.57-3.05-2.71-5.17-4.59 4.82-1.21 8.38-2.11 12.33-3.1.6 1.73 1.11 3.2 1.33 3.83-5.83 10.28-5.28 19.18 3.04 27.62Z"/><path d="M575.53 126.47c2.27-.74 4.12-1.34 6.12-2-1.9-1.69-3.75-3-5.18-4.67-2.63-3.06-2.27-6.24.69-8.89 4.02-3.59 10.84-3.9 15.3-.71 4.04 2.89 5 8.02 2.39 13.47-3.06 6.4-8.9 8.98-15.38 11.14-1.32-2.79-2.53-5.34-3.95-8.35Z" style="fill:#086fe0"/><path class="cls-10" d="M615.78 159.53c4.87-1.24 8.82-2.24 13.13-3.33.66 1.64 1.24 3.1 1.83 4.56-.4.03-.79.07-1.19.1 0 1.95-.48 4.06.09 5.83 1.74 5.45 3.89 10.77 5.86 16.09 6.96-.62 7.39-1.18 5.86-8.05 1.98-.69 4.02-1.39 6.51-2.26 1.22 3.76 2.36 7.24 3.64 11.17-8.31 2.35-16.3 4.62-24.94 7.06.09-1.45-.23-2.99.27-3.31 2.73-1.79 1.48-3.87.76-5.96-1.59-4.6-3.19-9.2-4.8-13.79-.57-1.63-.95-3-3.42-3.19-1.19-.09-2.17-2.86-3.59-4.92Z"/><path d="M422.57 252.79c-.93-2.43-1.19-5.4-5.14-4.96-.64.07-1.73-1.93-2.23-3.13-.72-1.7-1.08-3.54-1.72-5.74 3.49-1.22 6.83-2.39 10.58-3.7 1.16 2.96 2.64 5.62 3.12 8.46.2 1.18-1.69 2.73-2.63 4.11-.33-.15-.67-.31-1-.46.17 1.56.33 3.12.5 4.68-.49.25-.99.5-1.48.75Z" style="fill:#f1f6fc"/><path d="M676.07 173.24c-.07 3.23-1.96 5.17-5.08 5.2-3.1.04-5.83-3.12-5.7-6.58.11-3.11 2.37-4.9 5.91-4.7 2.68.15 4.94 2.97 4.87 6.07Z" style="fill:#3788e5"/><path class="cls-6" d="M488.22 160.82c-.02-.3-.05-.6-.07-.9.15.17.31.33.46.5-.13.13-.26.27-.39.4ZM577.13 184.92c-.15.29-.25.48-.35.67-.31-.17-.61-.33-.92-.5.11-.17.24-.49.33-.48.31.04.61.19.95.3ZM481.38 206.31c.06.09.18.18.16.26-.01.07-.16.13-.24.19-.06-.09-.18-.18-.16-.26.01-.07.16-.13.24-.19Z"/><path class="cls-12" d="M220.69 155.3c-2.67.24-4.8.99-6.63.51-12.17-3.15-24.36-6.27-36.36-9.99-5.79-1.8-7.72-6.92-7.78-13.51 4.1 1.79 8.55 1.38 11.44 5.16.55.72 1.63 1.09 2.53 1.45 1.27.5 2.59.93 3.93 1.22 11.69 2.49 22.32 7.36 32.86 15.17Z"/><path class="cls-11" d="M232.05 140.83c-2.27-.49-4.45-.64-6.31-1.48-1.18-.53-2.02-2.02-2.78-3.22-1.09-1.73-1.61-3.97-3.01-5.33-3.03-2.96-8.47-3.84-7.52-9.42 7.47-4.67 12.1.85 16.78 5.66 3.35 3.44 4.1 7.76 2.83 13.8Z"/><path class="cls-7" d="M208.98 113.24c-2.84.36-5.4.69-8.37 1.07.47.68.78 1.13 1.23 1.79-1.34.32-2.6.63-3.97.96.32.62.6 1.17.8 1.56-7.5 3.11-14.35.78-21.86-2.25 7.6-6.23 16.12-7.61 25.13-7.51.47 4.53 5.05 1.88 7.04 4.38Z"/></svg>