<svg id="Layer_1" xmlns="http://www.w3.org/2000/svg" viewBox="0 0 205.81 177.61"><path d="M0 177.61c6.15-25.71 12.1-50.58 18.13-75.77h5.23c49.48 0 98.96.05 148.44-.1 3.95-.01 5.81 1.08 7.26 4.8 8.14 20.92 16.57 41.72 24.88 62.57.61 1.52 1.06 3.1 1.88 5.52-68.66 1-136.84 1.98-205.81 2.99Z" style="fill:#0173bb"/><path d="M141.29 50.79c-.88 15.62-6.42 30.73-21.37 40.69-17.45 11.63-38.42 8.25-51.99-7.76-17.83-21.04-16.1-53.89 3.84-72.94 16.64-15.9 42.92-13.98 57.41 4.19 7.96 9.98 11.81 21.42 12.1 35.82Z" style="fill:#0173bc"/></svg>