<svg version="1.1" id="Layer_1" xmlns="http://www.w3.org/2000/svg" x="0" y="0" viewBox="0 0 612 792" style="enable-background:new 0 0 612 792" xml:space="preserve"><g id="_1" transform="matrix(3.79775 0 0 4.07446 -720.946 -794.539)"><g transform="matrix(.10125 0 0 .09276 83.416 146.589)"><path d="m2465.8 1367.6-1237.9-62.4 32.6 1016.8H2462l3.8-954.4z" style="fill-rule:evenodd;clip-rule:evenodd;fill:#0075c2;stroke:#0075c2;stroke-width:22.04px;stroke-linecap:round;stroke-miterlimit:3" id="Basket"/></g><g id="Handle"><path d="m855.6 1331.1 178.1-262.8" style="fill:none;stroke:#0075c2;stroke-width:24.5px;stroke-linecap:round;stroke-miterlimit:3" transform="matrix(-.08006 .02185 .02 .18317 363.632 14.077)"/><path d="m1689.7 1014.9 172.3 257.8" style="fill:none;stroke:#0075c2;stroke-width:30.65px;stroke-linecap:round;stroke-miterlimit:3" transform="matrix(-.07716 -.02221 -.02153 .16503 390.164 107.924)"/><path d="m1203.4 1302.8 530.7 39.1" style="fill:none;stroke:#0075c2;stroke-width:28.32px;stroke-linecap:round;stroke-linejoin:round;stroke-miterlimit:3" transform="matrix(-.12116 0 0 .1451 448.036 43.167)"/><path style="fill-rule:evenodd;clip-rule:evenodd;fill:#0075c2;stroke:#0075c2;stroke-width:14.09px;stroke-linecap:round;stroke-linejoin:round;stroke-miterlimit:3" d="M1207.7 1097.5h411.6v82.5h-411.6z" transform="matrix(-.07533 .00457 .0083 .11277 367.086 100.165)"/></g></g></svg>