<svg id="Layer_1" xmlns="http://www.w3.org/2000/svg" viewBox="0 0 713.53 356.8"><defs><style>.cls-1{fill:none}.cls-2{fill:#0377c0}</style></defs><path class="cls-2" d="M313.73 15.72c19.28 67.81 38.18 134.31 57.65 202.81.83-12.56 1.78-23.05 2.16-33.57.87-24.37 1.54-48.75 2.13-73.13.32-13.15.05-13.15-12.99-17.93-1.57-.58-3.32-2.97-3.5-4.67-1.6-15.08-2.86-30.19-4.23-45.29-.91-10.06-1.84-20.11-2.75-30.06 6.97-1.94 36-2.52 50.65-1.01-.55 30.18-1.1 60.47-1.66 91.3-2.18.15-3.95 0-5.55.44-6.16 1.7-8.4 4.47-8.13 10.94.42 10.11 1.12 20.22 1.92 30.31.98 12.28 2.29 24.53 3.29 36.81 1.41 17.33 2.68 34.66 3.97 52 .14 1.82.02 3.65.02 6-12.56.57-24.52 1.02-36.47 1.69-4.09.23-5.98-1.25-7.68-5.16-14.34-32.96-29.02-65.77-43.6-98.62-.86-1.93-1.76-3.84-3.5-7.64-.77 17.56-1.42 33-2.13 48.44-.25 5.37-.46 10.76-1.07 16.09-1.25 10.79.99 14.8 11.26 18.98 1.75.71 3.86.84 5.31 1.9 1.32.96 2.82 2.86 2.77 4.3-.23 6.55-.98 13.08-1.59 20.07h-51.17c0-4.74.16-9.09-.04-13.42-.26-5.65-.04-10.51 6.98-12.47 2.03-.57 3.74-4.07 4.58-6.57 1.09-3.24 1.53-6.81 1.63-10.26.88-30.08 1.51-60.16 2.47-90.23.21-6.76-1.4-11.66-8.37-14.09-1.61-.56-2.7-2.98-3.71-4.72-.6-1.04-.71-2.44-.77-3.69-1.15-23.05-2.27-46.1-3.41-69.53h45.55ZM211.37 0c5.22.96 10.78 1.09 15.59 3.06 7.21 2.95 10.86 9.56 12.51 16.88 1.38 6.12 2.2 12.41 2.73 18.67.46 5.35.13 10.77.21 16.15.72 47.19 1.31 94.39 2.31 141.58.23 10.73 1.4 21.35-.44 32.12-2.2 12.89-10.1 20.25-23.45 19.59-12.65-.63-25.24-2.18-37.88-3.05-7.28-.5-14.61-.32-21.9-.74-3.76-.21-7.56-.76-11.22-1.66-7.47-1.83-12-6.74-13.6-14.22-.46-2.14-.81-4.4-.68-6.57.96-15.76 2.05-31.52 3.11-47.27.19-2.84.45-5.68.59-8.53 1.4-27.8 2.67-55.61 4.2-83.41.91-16.41 1.29-32.93 3.59-49.17 2.98-21.03 12.25-29.75 31.9-30.62 10.76-.48 21.52-1.25 32.27-1.88l.17-.93Zm-45.4 147.49h-.28c.62 21.51 1.18 43 1.88 64.49.28 8.59 4.06 13.2 12.27 15.82 8.2 2.62 16.47 2.18 24.17-1.06 6.15-2.59 11.35-6.61 11.5-14.69.39-20.55 1.21-41.08 1.83-61.63.51-16.74.93-33.49 1.49-50.23.25-7.54-3.62-12.95-11.45-15.32-10.1-3.06-20.03-1.92-29.76 1.63-8.01 2.92-11.99 8.4-11.76 17.31.37 14.55.1 29.12.1 43.67ZM677.01 109.12c2.25-14.33 4.47-28.66 6.75-42.98 2.33-14.62 4.67-29.24 7.09-43.85.51-3.09 1.37-6.13 2.2-9.79h12.72c-3.89 39.87-7.76 79.6-11.66 119.55-10 0-19.44-.02-28.88.01-3.63.01-4.74-1.96-5.22-5.31-1.7-11.86-3.67-23.67-5.59-35.5-1.72-10.56-5.86-19.39-17.1-22.84-11.99-3.68-23.11 3.92-22.93 16.38.25 17.09.95 34.19 2.21 51.23 1.11 15.03 9.5 25.53 21.62 27.73 4.57.83 9.45-.08 14.18 0 8.19.15 16.46-.12 24.56.88 7.67.94 13.68 5.5 16.23 12.97 2.22 6.51 3.82 13.32 4.85 20.12 1.13 7.48 1.23 15.1 1.88 22.66.87 10.15-3.58 17.31-13.2 20.32-3.28 1.03-6.83 1.74-10.25 1.69-22.55-.32-45.1-.9-67.64-1.35-7.65-.15-13.37-3.43-17.01-10.16-3.57-6.62-7.06-13.28-11.56-21.75v33.11h-20.75c-1.33-13.88-2.67-27.8-4.1-42.66 10.47 1.05 19.85 1.82 29.16 3.07 1.66.22 4.09 2.23 4.4 3.77 3.61 17.64 17.29 22.27 32.23 24.44 10.07 1.46 20.25.26 30-3.24 10.08-3.62 13.56-8.75 12.64-19.32-.36-4.08-1-8.17-1.91-12.17-1.31-5.73-7.03-10.09-14.17-10.66-9.81-.79-19.64-1.21-29.46-1.86-10.85-.72-21.03-3.53-30.7-9.35.66-1.31.9-2.17 1.44-2.77 12.43-13.77 12.66-29.75 7.97-46.32-2.05-7.26-6.89-13.12-14.2-15.53-4.3-1.42-5.26-4.01-5.65-7.57-.85-7.85-1.73-15.71-2.37-23.58-1.01-12.61-1.77-25.23-2.76-37.84-1.17-15.03 7.63-25.08 21-26.59 15.71-1.78 31.37-4.21 47.13-5.19 11.57-.72 18.94 5.66 21.92 17 1.52 5.78 2.59 11.71 3.39 17.63 2.75 20.32 5.3 40.66 7.9 61 .2 1.57.17 3.17.25 4.75v6.69l1.52.07c.63-2.3 1.25-4.59 1.88-6.89ZM12.63 6.88c31.63 1.79 61.6 3.49 91.68 5.19.82 8.1 1.83 15.26 2.21 22.46.89 17.08 1.41 34.18 2.21 51.27.58 12.33 1.44 24.64 2 36.97.1 2.19 1.35 5.47-2.87 5.69-3.42.18-4.22-2.21-4.6-4.87-.76-5.31-1.36-10.65-2.21-15.94-.55-3.42-1.06-6.91-2.21-10.14-2.28-6.42-7.25-9.07-13.98-9.39-6.89-.33-12.1 2.2-14.22 8.66-1.75 5.33-2.67 11.06-3.05 16.67-.57 8.47-.37 17-.47 25.51-.18 17.12-.41 34.25-.49 51.37-.07 15.44 6.85 24.05 21.82 27.39 1.5.33 3.06.36 5 .57v22.14c-22.71.66-45.05-.25-68.11-1.73l-4.48-24.28c1.37-.47 2.45-1.09 3.57-1.18 9.95-.86 14.23-7.21 15.68-16.16.85-5.28 1.91-10.6 1.93-15.91.11-25.37 0-50.74-.26-76.11-.05-4.69-.64-9.5-1.89-14.01-1.67-6-5.17-10.68-11.82-12.41-5.51-1.43-9.03-.4-10.15 4.88-1.23 5.8-1.59 11.85-1.74 17.81-.26 10.05-.07 20.12-.07 30.92-3.1-.74-6.05-1.45-9.43-2.25 1.98-40.98 3.95-81.66 5.96-123.1ZM477 79.85c-4.29 1.13-8.03 1.7-11.43 3.09-6.51 2.68-8.74 8.37-5.35 14.57 4.68 8.59 9.92 16.89 15 25.25 4.24 6.98 8.61 13.88 13.51 21.75 3.82-4.8 7.15-8.78 10.26-12.94 6.44-8.61 13.31-16.96 18.98-26.06 5.52-8.87 1.44-16.7-8.86-19.01-.62-.14-1.26-.17-1.89-.21-4.85-.36-6.24-2.92-5.77-7.65 1.43-14.45 2.47-28.94 3.7-43.41.67-7.87 1.51-15.73 2.07-23.61.23-3.19 1.92-4.52 4.78-4.75 11.36-.9 22.72-1.74 34.74-2.66.26 2.94.63 5.37.66 7.8.21 17.11.24 34.22.55 51.33.16 8.85.89 17.69 1.12 26.54.17 6.64.03 6.91-6.29 7.67-4.49.54-7.53 2.55-10.07 6.17-11.25 16.05-22.77 31.91-33.87 48.07-1.81 2.63-2.75 6.42-2.7 9.66.2 14.24.95 28.46 1.41 42.69.39 12.14 5.11 15.14 15.15 14.11 1.85-.19 3.74-.03 6.36-.03.6 3.47 1.18 6.79 1.74 10.11.56 3.38 1.1 6.77 1.65 10.14-6.3 2.02-63.46 2.71-78.46.81.92-5.46 1.83-10.89 2.83-16.84 1.44-.26 2.9-.59 4.38-.79 10.57-1.37 14.07-5.45 14.41-16.11.64-19.93 1.38-39.86 2.3-59.78.23-4.92-.69-9.23-3.1-13.56-6.59-11.86-12.87-23.89-19.25-35.86-3.86-7.24-9.29-12.93-17.19-15.43-3.77-1.19-4.98-2.94-4.96-6.7.1-21.23 0-42.46.02-63.69 0-.87.48-1.74 1.04-3.67 13.74 0 27.64.03 41.54-.02 3.76-.01 4.86 2.13 5.12 5.38 1.31 16.06 2.66 32.12 4.04 48.17.56 6.53 1.23 13.05 1.84 19.43Z"/><path class="cls-2" d="M540.25 169.85v-10.64h15.09c-3.94-5.3-7.44-9.64-10.52-14.24-2.93-4.38-4.63-9.08-.81-13.99 3.52-4.52 9.11-6.22 15.28-4.58 15.53 4.14 20.59 19.04 10.73 31.59-7.31 9.31-17.44 11.68-29.77 11.87ZM118.29 253.74c-2.97.31-5.94.62-10.13 1.05 3.43 4.17-.58 10.84 7.18 11.51.95.08 2.19 3.02 2.35 4.73.36 3.67.11 7.4.11 12.03-7.29 0-13.85.16-20.4-.1-1.87-.07-4.67-.86-5.32-2.17-1.2-2.41-.05-5.12 2.91-5.91 3.59-.96 4.01-3.43 3.95-6.49-.09-4.63-.02-9.25-.02-14.04H72.63l-.12-2.73c11.24-.34 22.48-.77 33.72-.98 4.03-.07 8.06.38 12.09.59l-.03 2.51ZM24.64 253.1c-.04-.7-.1-1.38-.14-2.1h.04c.04.7.07 1.4.1 2.1Z"/><path class="cls-2" d="m46.05 250.93-.18 2.94v.03c-7.05-2.42-14.12-2.16-21.19-.09-.01-.24-.02-.48-.04-.71-.04-.7-.1-1.38-.14-2.1 7.17 0 14.38-.08 21.55-.07ZM161.62 294.15c.77-4.62 1.29-9.3 2.38-13.85 1.44-6.01 5.08-10.24 11.6-10.7 6.37-.45 11.74 1.73 15.34 7.39 4.05 6.36 4.88 13.61 5.12 20.77.19 5.59-.44 11.38-1.81 16.8-3.14 12.43-14.73 15.15-23.74 5.9-5.63-5.78-8.44-14.61-8.9-26.32ZM295.06 298.23c1.11-6.02 1.47-11.16 3.08-15.87 2.36-6.91 7.91-10.67 15.17-10.97 6.75-.28 12.54 2.19 15.65 8.65 1.34 2.8 2.6 5.9 2.81 8.93.67 9.62-1.26 18.89-5.93 27.36-2.9 5.26-7.47 8.48-13.9 8.29-6.21-.18-10.18-3.82-12.16-9.06-2.2-5.82-3.32-12.04-4.72-17.33ZM458.26 300.68l-.13.03c0 1.07.02 2.14 0 3.2v.1c.01.17 0 .33 0 .5-.03 1.34-.14 2.6-.31 3.78-.01.04-.01.08-.02.12-1.59 10.28-8.66 14.66-20.18 12.43-5.32-1.02-8.44-4.66-9.88-9.27-3.3-10.51-3-21.28.04-31.78 1.33-4.62 4.28-8.38 10-8.79 6.92-.5 13.27 1.07 15.92 7.71 2.19 5.5 3.34 11.41 4.64 17.27 0 1.63-.03 3.2-.08 4.7Z"/><path class="cls-2" d="M456.19 315c.64 0 1.22-2.55 1.61-6.59.01-.04.01-.08.02-.12.12-1.29.23-2.72.31-4.28v-.1c.06-1.03.1-2.11.13-3.23.05-1.5.08-3.07.08-4.7v-.39L456.19 315Z"/><path class="cls-1" d="m547.65 250.48-5.22.04"/><path class="cls-2" d="M710.71 250.58c-56.09-.03-112.19-.08-168.28-.12v.06l-30.19.26c-.71-.07-1.42-.15-2.14-.15-87.06-.02-174.11-.04-261.17.04-3.42.01-6.84.97-10.26 1.51-4.01.64-8.02 1.94-12.01 1.86-26.66-.52-53.31-1.33-79.96-2.07-1.9-.06-3.8-.43-5.7-.46-7.56-.14-15.12-.19-22.68-.28l-.03 2.51c5.91.64 11.83 1.28 18.54 2-1.02 5.52-1.04 9.77-4.52 14.3-2.62 3.42-1.89 9.64-2.08 14.64-.34 9.17-.29 18.36-.35 27.54-.05 9.53-.02 9.53 10.4 10.62.32 1.96.73 4.05.96 6.16.21 1.88.22 3.77.35 6.24h-34.18v-11.09c.89-.71 1.34-1.38 1.85-1.42 11.17-1.01 11.08-1.01 9.58-11.78-.64-4.64-.71-9.36-1.06-14.5H91.79c0 6.53-.27 13.03.09 19.49.28 5.15 5.13 4.62 8.65 5.39.84 3.99 1.62 7.64 2.48 11.7-5.03 1.97-10.07.75-14.96.93-4.72.18-9.45.04-14.81.04-.46-4.47-.4-7.52 3.68-9.97 1.69-1.01 3-4.13 2.97-6.27-.19-12.32-.8-24.64-1.35-36.95-.07-1.53-.22-4.08-1.03-4.4-7.54-2.93-4.6-9.26-4.96-14.46-.18-2.52.04-5.07.08-7.6l-.12-2.73-26.46-.72v.03l-.18 2.94c.57.26 1.2.44 1.73.78 5.77 3.65 5.76 3.62 13.74 3.06 1.49-.1 3.02.23 4.95.39.98 8.49 1.92 16.56 2.98 25.65-8.43 1.06-16.22.76-24.3.92-.93-3.1-1.49-6.18-2.74-8.95-3.69-8.14-11.7-10.08-18.67-4.52-1.94 1.54-3.89 3.5-4.94 5.69-4.81 10.15-5.5 20.7-1.13 31.12 3.25 7.74 12.76 11.94 21.43 10.22 9.21-1.83 13.97-7.36 14.66-17 .09-1.26.18-2.51.32-4.36 2.11-.24 4.2-.56 6.3-.69 1.85-.12 3.71-.03 6.32-.03.57 6.39 1.31 12.24 1.57 18.12.26 5.98.05 11.99.05 18.76H52.3c-.67-1.51-1.73-3.94-2.83-6.43-27 15.75-46.03-4.86-47.73-24.6l-.07-.02c-.51-4.55.06-15.1.1-15.76h.01c.29-17.42 7.11-27.05 22.9-32.32v-.09c-.01-.24-.02-.48-.04-.71-.04-.7-.1-1.38-.14-2.1-4.1-.1-8.2-.25-12.31-.28-3.97-.02-7.94.08-12.09.13v35.39l.07 15.74H.14C.09 320.26.04 338.53 0 356.8h713.53V250.23c-.94.12-1.88.35-2.82.35Zm-503.14 66.11c-2.79 11.32-11.11 17.19-22.41 18.95-3.13.48-6.33.48-9.49.69-18.67 1.15-28.22-11.06-32.11-28.44-1.53-6.84-2.28-14.04-.89-21.52 3.83-20.52 19.02-30.8 40.61-25.51 15.71 3.86 24.78 15.73 26.25 35.23.51 6.8-.32 13.96-1.96 20.6Zm70.74 15.23c-5.39.47-10.83 5.62-15.92-1.36-.24-.34-2.16.48-3.27.83-2.98.95-5.95 1.93-8.92 2.91-13.92 4.59-26.42-3.42-31.82-18.17-4.87-13.34-3.17-26.87 1.67-39.8 2.98-7.98 9.78-12.17 18.44-12.84 9.52-.73 19.06-1.45 27.31 7.37.5-2.38.8-3.45.93-4.54.24-2.08-.38-5.16 3.03-4.4 1.64.36 3.83 2.57 4.06 4.19 1.22 8.32 1.88 16.73 2.82 25.91-8.11-.39-14.94-.08-17.89-9.28-2.05-6.4-7.47-8.96-14.39-8.28-7.48.73-12.66 4.34-14.8 11.33-2.47 8.04-1.57 15.96.19 24.17 2.27 10.62 22.65 14.31 28.01 5.04 5.04-8.72 11.71-8.72 20.55-8.89v25.81Zm65.95-13.9c-3.53 12.47-12.66 18.86-25.21 19.13-7.09.15-14.65-1.06-21.2-3.67-4.55-1.82-9.26-6.4-11.23-10.9-6.58-15.14-6.55-30.47 1.78-45.37 6.97-12.47 23.69-17.37 35.24-14.93 8.92 1.87 17.49 4.53 21.51 13.53 2.38 5.34 3.31 11.32 4.79 16.68-1.97 9.02-3.38 17.4-5.68 25.53Zm50.65 17.86c-10.78-.12-21.56-.26-32.34-.46-2.53-.04-5.09-.09-7.56-.55-4.49-.85-6.43-5.83-2.77-8.01 5.44-3.22 4.8-7.68 4.66-12.3-.39-13.26-.87-26.51-1.52-39.76-.1-2.04-.7-5.16-2.05-5.85-4.89-2.49-4.29-6.21-3.47-10.96h32.3c.36 1.43.71 2.57.91 3.74.8 4.54-.5 7.4-5.74 7.4-3.34 0-5.32 1.61-5.32 5.22.03 14.47.01 28.94.01 44.33 6.54 0 11.84 0 17.14-.01 3.83-.02 5.88-1.85 5.84-5.8-.04-3.42-.01-6.84-.01-10.16 10.05-1.55 10.01-1.54 11.4 7.3 1.31 8.31 2.72 16.61 4.25 25.88-5.79 0-10.76.04-15.73-.01Zm77.04-18.99c-1.33 9.3-7.32 14.85-15.99 16.54-27.18 5.27-45.16-10.39-45.91-34.08-.26-7.95-.03-15.73 4.07-22.95 6.4-11.25 18.02-17.65 29.84-16.19 14.04 1.73 24.25 10.36 27.31 23.83 1.38 6.1 1.68 12.44 2.37 17.88-.62 5.6-1.02 10.31-1.69 14.97Zm69.6-50.99c-2.11.83-5.28 1.1-6.35 2.74-1.38 2.13-1.45 5.35-1.44 8.09.07 16.15.34 32.29.53 48.43.03 2.77 0 5.53 0 7.93-1.29.6-1.8.97-2.37 1.08-11.17 2.27-17.04-2.56-20.97-13.11-4.8-12.91-11.49-25.12-17.56-38.06-1.11 4.53-1.9 28.1-1.06 31.65.28 1.17.77 2.99 1.56 3.23 9.44 2.95 6.01 10.85 7.62 17.54h-23.93c-.44-6.19-3.52-12.15 2.44-17.56 1.22-1.1.88-4.18.86-6.34-.06-9.49-.16-18.99-.49-28.48-.17-4.88.3-9.84-5.21-13.19-1.82-1.1-1.52-5.67-2.51-10.11 4.67 0 8.45.55 12.01-.12 6.53-1.21 9.78 2.18 12.8 7.13 5.76 9.42 11.86 18.63 17.9 27.88 1.13 1.74 2.66 3.21 5.31 6.35 0-10.72.07-19.44-.07-28.16-.03-1.44-.58-3.58-1.61-4.19-6.53-3.87-4.91-10.08-4.98-15.84-.05-.09-.1-.19-.16-.28h28.44c-.25 4.36-.5 8.76-.76 13.39Zm4.46 67.98c.16-3.88-2.06-7.59 3.29-9.62 1.13-.43 2.02-3.04 2.04-4.65.19-15.82.13-31.64.26-47.47.02-2.87-.92-4.5-3.61-5.88-1.41-.72-1.84-3.33-3.26-6.2h50.04c0 5.15.25 10.15-.18 15.1-.1 1.17-2.31 2.62-3.8 3.03-.75.2-2.98-1.63-2.98-2.54.01-5.58-3.85-6.02-7.76-5.9-5.36.16-10.71.82-16.69 1.33v23.82c3.05-1.81 5.47-2.55 6.78-4.17 3.22-4.01 3.02-4.18 9.61-3.23v18.71c-5.4-3.75-9.23-9.42-16.52-5.08v16.93c5.04.82 9.94 1.81 14.9 2.38 5.53.63 6.78-.5 7.38-5.93.14-1.25 0-2.53.07-3.79.07-1.24.23-2.48.44-4.53 3.4-.17 6.72-.33 10.75-.52l2.43 28.21h-53.19Zm111.97.09c-16.84-.14-33.68-.27-50.51-.69-2.1-.06-5.39-1.34-5.99-2.88-1.18-3.06.86-5 4.34-5.81 4.29-1 4.46-4.81 4.3-8.35-.56-12.65-1.17-25.28-1.84-37.92-.36-6.86-.49-6.94-8.57-9.62v-12.84c9.91.69 19.52 1.35 29.98 2.07-.98 5.28 3.3 11.03-4.57 13.99-1.2.45-1.51 4.57-1.41 6.96.63 14.18 1.5 28.34 2.36 43.62 3.52 0 6.03.02 8.54 0 8.91-.09 9.55-.7 9.96-9.74.07-1.52.01-3.05.01-5.1h15.31c.6 8.14 1.22 16.49 1.86 25.2-1.5.46-2.64 1.12-3.77 1.11Zm46.09-58.82c-1.86.24-4.31 2.09-5.06 3.83-5.18 12.09-11.92 23.86-10.16 37.79.25 2.02.93 4.72 2.37 5.72 4.36 3.01 3.41 6.86 3.13 11.72-8.14.4-15.93.97-23.74 1.09-5.17.09-7.44-3.69-3.9-6.9 5.43-4.93 2.48-10.64 3.1-15.97.69-5.8-.56-10.82-5.03-15.48-7.43-7.73-13.2-17.18-21.16-24.24-4.69-4.16-6.03-7.99-6.08-13.87h22.54c0 2.78 1.01 6.14-.19 7.38-4.04 4.19-1.24 6.59 1.38 9.47 4.63 5.09 9.15 10.26 14.38 16.15 4.12-6.27 7.63-11.42 10.88-16.72 1.19-1.94 1.45-3.93-1.2-5.58-4.06-2.53-3.94-2.73-3.47-9.27 4.25 0 8.6-.21 12.91.06 4.07.25 8.1 1 12.75 1.61.22 2.36.5 4.78.66 7.2.19 3.01.04 5.49-4.11 6.01Z"/><path class="cls-1" d="M1.79 302.85c-.05-.26-.09-.55-.12-.87"/></svg>