<svg version="1.1" id="Layer_1" xmlns="http://www.w3.org/2000/svg" x="0" y="0" viewBox="0 0 612 792" style="enable-background:new 0 0 612 792" xml:space="preserve"><g transform="matrix(3.79775 0 0 4.27819 -695.946 -831.57)"><g id="_2"><g id="_1"><g transform="matrix(.10125 0 0 .09276 83.416 146.589)"><path d="m2208.2 1348.5-851.9-46 22.4 749.8h826.8l2.7-703.8z" style="fill-rule:evenodd;clip-rule:evenodd;fill:#fff;stroke:#fff;stroke-width:22.04px;stroke-linecap:round;stroke-miterlimit:3" id="Basket"/></g><g id="Handle"><path d="m1125.7 1284.7 119.7-192.4" style="fill:none;stroke:#fff;stroke-width:29.79px;stroke-linecap:round;stroke-miterlimit:3" transform="matrix(-.08006 .02185 .02 .18317 363.632 14.077)"/><path d="m1632.6 1053.1 115.5 188.5" style="fill:none;stroke:#fff;stroke-width:36.66px;stroke-linecap:round;stroke-miterlimit:3" transform="matrix(-.07716 -.02221 -.02153 .16503 390.164 107.924)"/><path d="m1339.3 1365.2 365.2 28.8" style="fill:none;stroke:#fff;stroke-width:33.67px;stroke-linecap:round;stroke-linejoin:round;stroke-miterlimit:3" transform="matrix(-.12116 0 0 .1451 448.036 43.167)"/><path style="fill-rule:evenodd;clip-rule:evenodd;fill:#fff;stroke:#fff;stroke-width:41.86px;stroke-linecap:round;stroke-linejoin:round;stroke-miterlimit:3" d="m1364.8 1177.9 283.3.9.4 60.7-283.3-.8z" transform="matrix(-.07533 .00457 .0083 .11277 367.086 100.165)"/></g></g></g></g></svg>