<svg version="1.1" id="Layer_1" xmlns="http://www.w3.org/2000/svg" x="0" y="0" viewBox="0 0 612 792" style="enable-background:new 0 0 612 792" xml:space="preserve"><g id="_2" transform="matrix(3.96091 0 0 3.76995 -760.405 -707.796)"><g transform="matrix(.10125 0 0 .09276 80.276 147.777)"><path d="m2468.6 1344.1-1186.9 88.1 78.2 869.8 1016.7-12.2 92-945.7z" style="fill-rule:evenodd;clip-rule:evenodd;fill:#0075c2;stroke:#0075c2;stroke-width:22.04px;stroke-linecap:round;stroke-miterlimit:3" id="Basket"/></g><g id="Handle"><path d="m891.7 1290.4 178.1-262.8" style="fill:none;stroke:#0075c2;stroke-width:22.69px;stroke-linecap:round;stroke-miterlimit:3" transform="matrix(-.08135 .01892 .0384 .2249 349.165 -30.983)"/><path d="m1761.1 1002.6 172.3 257.8" style="fill:none;stroke:#0075c2;stroke-width:24.58px;stroke-linecap:round;stroke-miterlimit:3" transform="matrix(-.08113 -.00225 -.00092 .21434 375.976 14.824)"/><path d="m1225.3 1303.2 530.7 39.1" style="fill:none;stroke:#0075c2;stroke-width:28.04px;stroke-linecap:round;stroke-linejoin:round;stroke-miterlimit:3" transform="matrix(-.13008 .00079 -.00094 .14519 461.863 29.429)"/><path style="fill-rule:evenodd;clip-rule:evenodd;fill:#0075c2;stroke:#0075c2;stroke-width:14.09px;stroke-linecap:round;stroke-linejoin:round;stroke-miterlimit:3" d="M1240.1 1096.6h411.5v82.4h-411.5z" transform="matrix(-.07533 .00457 .0083 .11277 362.43 88.057)"/></g></g></svg>