<?xml version="1.0" encoding="UTF-8"?><svg id="Layer_1" xmlns="http://www.w3.org/2000/svg" viewBox="0 0 220.1 225.89"><defs><style>.cls-1{fill:#020202;stroke:#000;stroke-miterlimit:10;stroke-width:9px;}</style></defs><path class="cls-1" d="M118.19,136.3c-36.19,24.53-76.42,13.92-97.67-12.97C-2.54,94.18-.47,52.46,25.2,25.96,49.82,.55,89.01-2.53,117.31,17.97c28.88,20.91,42.63,68.27,13.97,105.8,9.61,9.73,19.15,19.51,28.81,29.17,16.62,16.62,33.32,33.16,49.97,49.75,1.41,1.41,2.86,2.84,3.96,4.48,2.51,3.77,1.96,8.3-1.16,11.44-3.11,3.12-7.67,3.73-11.44,1.28-1.65-1.07-3.1-2.51-4.51-3.92-25.17-25.04-50.33-50.1-75.45-75.19-1.28-1.28-2.18-2.95-3.28-4.47Zm14.74-58.81c.11-32.38-25.25-58.79-56.73-59.09-31.51-.29-57.53,26.25-57.6,58.75-.07,32.55,25.72,59.16,57.26,59.1,31.44-.07,56.95-26.35,57.06-58.76Z"/></svg>