<?xml version="1.0" encoding="utf-8"?>
<!-- Generator: Adobe Illustrator 26.3.1, SVG Export Plug-In . SVG Version: 6.00 Build 0)  -->
<svg version="1.1" id="Layer_1" xmlns:serif="http://www.serif.com/"
	 xmlns="http://www.w3.org/2000/svg" xmlns:xlink="http://www.w3.org/1999/xlink" x="0px" y="0px" viewBox="0 0 612 792"
	 style="enable-background:new 0 0 612 792;" xml:space="preserve">
<style type="text/css">
	
		.st0{fill-rule:evenodd;clip-rule:evenodd;fill:#0075C2;stroke:#0075C2;stroke-width:22.04;stroke-linecap:round;stroke-miterlimit:3;}
	.st1{fill:none;stroke:#0075C2;stroke-width:22.69;stroke-linecap:round;stroke-miterlimit:3;}
	.st2{fill:none;stroke:#0075C2;stroke-width:24.58;stroke-linecap:round;stroke-miterlimit:3;}
	.st3{fill:none;stroke:#0075C2;stroke-width:28.04;stroke-linecap:round;stroke-linejoin:round;stroke-miterlimit:3;}
	
		.st4{fill-rule:evenodd;clip-rule:evenodd;fill:#0075C2;stroke:#0075C2;stroke-width:14.09;stroke-linecap:round;stroke-linejoin:round;stroke-miterlimit:3;}
</style>
<g id="_2" transform="matrix(3.96091,0,0,3.76995,-760.405,-707.796)" serif:id="2">
	<g transform="matrix(0.101247,0,0,0.0927569,80.2764,147.777)">
		<g id="Basket">
			<path class="st0" d="M2468.6,1344.1l-1186.9,88.1l78.2,869.8l1016.7-12.2L2468.6,1344.1z"/>
		</g>
	</g>
	<g id="Handle" transform="matrix(-0.121162,0,0,0.145103,449.68,63.0824)">
		<g transform="matrix(0.671451,0.130421,-0.316881,1.54989,829.594,-648.268)">
			<path class="st1" d="M891.7,1290.4l178.1-262.8"/>
		</g>
		<g transform="matrix(0.669607,-0.0155233,0.00757268,1.47718,608.308,-332.582)">
			<path class="st2" d="M1761.1,1002.6l172.3,257.8"/>
		</g>
		<g transform="matrix(1.07362,0.00541833,0.00777117,1.00057,-100.548,-231.929)">
			<path class="st3" d="M1225.3,1303.2l530.7,39.1"/>
		</g>
		<g transform="matrix(0.6217,0.0314732,-0.0685741,0.77718,720.108,172.113)">
			<polygon class="st4" points="1240.1,1096.6 1651.6,1096.6 1651.6,1179 1240.1,1179 			"/>
		</g>
	</g>
</g>
</svg>
